<svg xmlns="http://www.w3.org/2000/svg" xmlns:xlink="http://www.w3.org/1999/xlink" width="500" zoomAndPan="magnify" viewBox="0 0 375 374.999991" height="500" preserveAspectRatio="xMidYMid meet" version="1.2"><defs/><g id="750a44a6d6"><rect x="0" width="375" y="0" height="374.999991" style="fill:#ffffff;fill-opacity:1;stroke:none;"/><rect x="0" width="375" y="0" height="374.999991" style="fill:#ffffff;fill-opacity:1;stroke:none;"/><g style="fill:#8c52ff;fill-opacity:1;"><g transform="translate(83.36719, 273.500005)"><path style="stroke:none" d="M 104 3.5 C 85.832031 3.5 69.707031 -0.375 55.625 -8.125 C 41.539062 -15.875 30.539062 -26.582031 22.625 -40.25 C 14.707031 -53.914062 10.75 -69.664062 10.75 -87.5 C 10.75 -105.332031 14.707031 -121.082031 22.625 -134.75 C 30.539062 -148.414062 41.539062 -159.125 55.625 -166.875 C 69.707031 -174.625 85.832031 -178.5 104 -178.5 C 122.332031 -178.5 138.5 -174.625 152.5 -166.875 C 166.5 -159.125 177.5 -148.414062 185.5 -134.75 C 193.5 -121.082031 197.5 -105.332031 197.5 -87.5 C 197.5 -69.664062 193.5 -53.914062 185.5 -40.25 C 177.5 -26.582031 166.5 -15.875 152.5 -8.125 C 138.5 -0.375 122.332031 3.5 104 3.5 Z M 51.25 -87.5 C 51.25 -77 53.5 -67.75 58 -59.75 C 62.5 -51.75 68.707031 -45.5 76.625 -41 C 84.539062 -36.5 93.664062 -34.25 104 -34.25 C 114.5 -34.25 123.707031 -36.5 131.625 -41 C 139.539062 -45.5 145.707031 -51.75 150.125 -59.75 C 154.539062 -67.75 156.75 -77 156.75 -87.5 C 156.75 -98 154.539062 -107.25 150.125 -115.25 C 145.707031 -123.25 139.539062 -129.5 131.625 -134 C 123.707031 -138.5 114.5 -140.75 104 -140.75 C 93.664062 -140.75 84.539062 -138.5 76.625 -134 C 68.707031 -129.5 62.5 -123.25 58 -115.25 C 53.5 -107.25 51.25 -98 51.25 -87.5 Z M 51.25 -87.5 "/></g></g></g></svg>